<svg xmlns="http://www.w3.org/2000/svg" viewBox="0 0 1200 630" width="1200" height="630">
	<defs>
		<linearGradient id="bg" x1="0" y1="0" x2="1" y2="1">
			<stop offset="0%" stop-color="#0a0a0b" />
			<stop offset="100%" stop-color="#15110a" />
		</linearGradient>
		<radialGradient id="glow" cx="80%" cy="0%" r="80%">
			<stop offset="0%" stop-color="rgba(232,182,96,0.22)" />
			<stop offset="60%" stop-color="rgba(232,182,96,0)" />
		</radialGradient>
		<linearGradient id="gold" x1="0" y1="0" x2="1" y2="0">
			<stop offset="0%" stop-color="#F5D08A" />
			<stop offset="100%" stop-color="#D4A24C" />
		</linearGradient>
	</defs>

	<rect width="1200" height="630" fill="url(#bg)" />
	<rect width="1200" height="630" fill="url(#glow)" />

	<g opacity="0.18" stroke="#E8B660" fill="none" stroke-width="1">
		<circle cx="1050" cy="120" r="240" />
		<circle cx="1100" cy="80" r="180" />
		<circle cx="1140" cy="40" r="120" />
	</g>

	<g transform="translate(96 232)">
		<rect width="72" height="72" rx="14" fill="url(#gold)" />
		<rect x="3" y="3" width="66" height="66" rx="11" fill="#0a0a0b" />
		<g stroke="#F5D08A" stroke-width="3" stroke-linecap="round" stroke-linejoin="round" fill="none" transform="translate(18 18)">
			<polyline points="0,30 10,18 20,24 36,4" />
			<polyline points="26,4 36,4 36,14" />
		</g>
	</g>

	<text x="192" y="288" font-family="Fraunces, Georgia, serif" font-size="56" font-weight="600" fill="#F5F5F5" letter-spacing="-1">
		Trade<tspan fill="url(#gold)">Flex</tspan> Trading
	</text>

	<text x="96" y="412" font-family="Fraunces, Georgia, serif" font-size="80" font-weight="600" fill="#F5F5F5" letter-spacing="-2">
		Sharper signals.
	</text>
	<text x="96" y="498" font-family="Fraunces, Georgia, serif" font-size="80" font-weight="600" fill="url(#gold)" letter-spacing="-2">
		Cleaner setups.
	</text>

	<text x="96" y="560" font-family="Inter, sans-serif" font-size="22" font-weight="500" fill="#9b9ba0" letter-spacing="2">
		COURSES · INDICATORS · LIVE COHORTS
	</text>
</svg>
